# xmcd CD database file
#
# Track frame offsets:
#	150
#	8525
#	22747
#	35540
#	47020
#	56830
#	66077
#	75237
#	85120
#	98915
#	111700
#	124275
#	134520
#	148817
#	160260
#	173992
#	188935
#
# Disc length: 2716 seconds
#
# Revision: 0
# Processed by: cddbd v1.5.1PL0 Copyright (c) Steve Scherf et al.
# Submitted via: CdAid (MTCDDB.DLL V2003.07.15)
#
DISCID=e60a9a11
DTITLE=Various Artist - 50 US Country Hits cd 2
DYEAR=1999
DGENRE=Country
TTITLE0=Jerry Lee Lewis - great Balls Of Fire
TTITLE1=Bobby Helmes - My Special Angel
TTITLE2=Freddy Fender - You'll Lose a Good Thing
TTITLE3=Charlie Rich - Rollin' With the Flow
TTITLE4=Merla Travis - So round So firm So fully packed
TTITLE5=Faron Young - Live fast Love hard Die young
TTITLE6=Webb Pierce - Honky Tonky song
TTITLE7=David Houston - You Mean the world to me
TTITLE8=George Jones - A Good Year Fot the Roses
TTITLE9=Johnny Tillotson - It Keeps right on a Hurtin' 
TTITLE10=Billy Walker - Sge Goes Walking Trough My Mind
TTITLE11=Ferlin Husky - Wings of a Dove
TTITLE12=Kitty Wells- It Wasn't God Who Made Honky tonk Angels
TTITLE13=Donna Fargo - The Happiest Girl In the Whole U.S.A
TTITLE14=Melba Montgomery - No Charge
TTITLE15=Don Gibson - Woman (Sensues Woman)
TTITLE16=Bobby Bare - Marlie Laveau
EXTD=ID3G:   2 YEAR: 1999
EXTT0=
EXTT1=
EXTT2=
EXTT3=
EXTT4=
EXTT5=
EXTT6=
EXTT7=
EXTT8=
EXTT9=
EXTT10=
EXTT11=
EXTT12=
EXTT13=
EXTT14=
EXTT15=
EXTT16=
PLAYORDER=
